<?xml version="1.0" encoding="utf-8"?>
<!-- Generator: Adobe Illustrator 16.0.2, SVG Export Plug-In . SVG Version: 6.00 Build 0)  -->
<!DOCTYPE svg PUBLIC "-//W3C//DTD SVG 1.1//EN" "http://www.w3.org/Graphics/SVG/1.1/DTD/svg11.dtd">
<svg version="1.1" id="Layer_1" xmlns="http://www.w3.org/2000/svg" xmlns:xlink="http://www.w3.org/1999/xlink" x="0px" y="0px"
	 width="32px" height="32px" viewBox="0 0 32 32" enable-background="new 0 0 32 32" xml:space="preserve">
<g>
	<g>
		<path fill="#AFDA27" d="M31.588,30.033L21.123,19.465c3.918-4.714,3.689-11.773-0.699-16.206c-2.246-2.27-5.235-3.52-8.413-3.52
			c-3.179,0-6.166,1.25-8.413,3.52c-4.637,4.684-4.637,12.304,0,16.987c2.247,2.27,5.234,3.52,8.413,3.52
			c2.861,0,5.565-1.021,7.715-2.879l10.457,10.559c0.193,0.197,0.447,0.295,0.701,0.295s0.508-0.098,0.701-0.293
			C31.975,31.059,31.977,30.424,31.588,30.033z M19.018,18.834c-1.871,1.891-4.36,2.932-7.006,2.932
			c-2.647,0-5.136-1.041-7.008-2.932c-3.866-3.905-3.866-10.257,0-14.163c1.872-1.891,4.36-2.932,7.008-2.932
			c2.646,0,5.135,1.041,7.006,2.932C22.885,8.577,22.885,14.929,19.018,18.834z M17,10.73h-3.725V6.977c0-0.553-0.444-1-0.992-1
			c-0.549,0-0.993,0.447-0.993,1v3.753H7.565c-0.549,0-0.993,0.447-0.993,1s0.444,1,0.993,1h3.725v3.753c0,0.552,0.444,1,0.993,1
			c0.548,0,0.992-0.447,0.992-1V12.73H17c0.549,0,0.993-0.447,0.993-1S17.549,10.73,17,10.73z"/>
	</g>
</g>
</svg>
